<?xml version="1.0" encoding="utf-8"?>
<!-- Generator: Adobe Illustrator 24.3.0, SVG Export Plug-In . SVG Version: 6.00 Build 0)  -->
<svg version="1.1" id="Ebene_1" xmlns="http://www.w3.org/2000/svg" xmlns:xlink="http://www.w3.org/1999/xlink" x="0px" y="0px"
	 viewBox="0 0 595.28 841.89" style="enable-background:new 0 0 595.28 841.89;" xml:space="preserve">
<style type="text/css">
	.st0{fill:#16BAE7;}
</style>
<g>
	<path class="st0" d="M154.33,415.89c4.3,2.9,7.22,4.09,12.33,5.01c8.16,1.47,12.87-1.68,21-3.34c12.55-2.55,19.19-5.79,31.67-8.67
		c13.14-3.03,31.6-8.74,34-6.33c2.34,2.34,0.27,7.18-1.33,11.34c-1.61,4.17-8.33,6.67-6.67,9.32c1.43,2.28,6.72,1.06,11,0.67
		c7.33-0.67,15.49-3.31,25.34-5.66c13.58-3.24,20.99-6.15,34.66-9c4.02-0.84,6.23-2,10.34-2c3.34,0,3.66,0.56,4.01,2.34
		c0.66,3.34-4.58,8.58-2.67,13.66c1,2.67,15.01-0.61,24.33-2.66c16.67-3.67,58.99-13.67,88.33-19.67v15
		c-22.58,6.26-41.63,10.86-58.34,14.33c-27.34,5.67-50.34,10-66.67,12.01c-1.39,0.17-2.36-0.75-2.99-2c-2-4,2.5-9.77-1.67-12
		c-2.18-1.16-3.94-0.95-6.33-0.33c-9,2.33-15.52,4.83-25.67,7c-12.71,2.71-26.34,5-33,4.66c-2.79-0.14-4.7-0.66-6.66-2.66
		c-2.61-2.66-0.96-5.76-2-9.34c-0.77-2.64-0.04-5.14-2.33-6.67c-3-2-18.02,4.88-29.34,8.67c-10.92,3.65-16.67,6.66-27.66,10.33
		c-6.25,2.08-14.01,2.67-16,2c-3.5-1.17-5.67-2-8-5.33L154.33,415.89L154.33,415.89z"/>
</g>
</svg>
